<svg xmlns="http://www.w3.org/2000/svg" xmlns:xlink="http://www.w3.org/1999/xlink" version="1.1" data-diagram-type="CLASS" style="width:940px;height:369px;background:#FFFFFF;" width="940px" height="369px" viewBox="0 0 940 369" zoomAndPan="magnify" preserveAspectRatio="none" contentStyleType="text/css"><?plantuml 1.2026.7beta11?><defs/><g font-family="sans-serif" lengthAdjust="spacing"><!--class IAuthorizationRequirement--><g class="entity" data-qualified-name="IAuthorizationRequirement" id="ent0001" data-source-line="16"><rect x="7" y="128.28" width="220.87" height="56.266" fill="#FFF" style="stroke:#444;stroke-width:0.5;" rx="4" ry="4"/><ellipse cx="22" cy="148.413" rx="11" ry="11" fill="#B4A7E5" style="stroke:#181818;stroke-width:1;"/><path d="M17.922,144.178 L17.922,142.022 L25.313,142.022 L25.313,144.178 L22.844,144.178 L22.844,152.257 L25.313,152.257 L25.313,154.413 L17.922,154.413 L17.922,152.257 L20.391,152.257 L20.391,144.178 L17.922,144.178 Z " fill="#000"/><text x="90.782" y="144.419" fill="#000" font-size="12" textLength="79.307" font-style="italic">«framework»</text><text x="36" y="160.244" fill="#000" font-size="14" textLength="188.87" font-style="italic">IAuthorizationRequirement</text><line x1="8" y1="168.546" x2="226.87" y2="168.546" style="stroke:#444;stroke-width:0.5;"/><line x1="8" y1="176.546" x2="226.87" y2="176.546" style="stroke:#444;stroke-width:0.5;"/></g><!--class IAuthorizationHandler--><g class="entity" data-qualified-name="IAuthorizationHandler" id="ent0002" data-source-line="17"><rect x="293.92" y="7" width="185.022" height="56.266" fill="#FFF" style="stroke:#444;stroke-width:0.5;" rx="4" ry="4"/><ellipse cx="308.92" cy="27.133" rx="11" ry="11" fill="#B4A7E5" style="stroke:#181818;stroke-width:1;"/><path d="M304.842,22.898 L304.842,20.742 L312.233,20.742 L312.233,22.898 L309.764,22.898 L309.764,30.977 L312.233,30.977 L312.233,33.133 L304.842,33.133 L304.842,30.977 L307.311,30.977 L307.311,22.898 L304.842,22.898 Z " fill="#000"/><text x="359.778" y="23.139" fill="#000" font-size="12" textLength="79.307" font-style="italic">«framework»</text><text x="322.92" y="38.964" fill="#000" font-size="14" textLength="153.022" font-style="italic">IAuthorizationHandler</text><line x1="294.92" y1="47.266" x2="477.942" y2="47.266" style="stroke:#444;stroke-width:0.5;"/><line x1="294.92" y1="55.266" x2="477.942" y2="55.266" style="stroke:#444;stroke-width:0.5;"/></g><!--class ResourceOwnerRequirement--><g class="entity" data-qualified-name="ResourceOwnerRequirement" id="ent0003" data-source-line="19"><rect x="13.52" y="285.99" width="233.824" height="48" fill="#FFF" style="stroke:#444;stroke-width:0.5;" rx="4" ry="4"/><ellipse cx="28.52" cy="301.99" rx="11" ry="11" fill="#ADD1B2" style="stroke:#181818;stroke-width:1;"/><path d="M31.489,307.631 Q30.911,307.928 30.27,308.068 Q29.629,308.224 28.926,308.224 Q26.426,308.224 25.098,306.584 Q23.786,304.928 23.786,301.803 Q23.786,298.678 25.098,297.021 Q26.426,295.365 28.926,295.365 Q29.629,295.365 30.27,295.521 Q30.926,295.678 31.489,295.974 L31.489,298.693 Q30.864,298.115 30.27,297.849 Q29.676,297.568 29.051,297.568 Q27.708,297.568 27.02,298.646 Q26.333,299.709 26.333,301.803 Q26.333,303.896 27.02,304.974 Q27.708,306.037 29.051,306.037 Q29.676,306.037 30.27,305.771 Q30.864,305.49 31.489,304.912 L31.489,307.631 Z " fill="#000"/><text x="42.52" y="306.837" fill="#000" font-size="14" textLength="201.824">ResourceOwnerRequirement</text><line x1="14.52" y1="317.99" x2="246.344" y2="317.99" style="stroke:#444;stroke-width:0.5;"/><line x1="14.52" y1="325.99" x2="246.344" y2="325.99" style="stroke:#444;stroke-width:0.5;"/></g><!--class TransactionOwnerHandler--><g class="entity" data-qualified-name="TransactionOwnerHandler" id="ent0004" data-source-line="22"><rect x="278.07" y="124.26" width="216.723" height="64.297" fill="#FFF" style="stroke:#444;stroke-width:0.5;" rx="4" ry="4"/><ellipse cx="293.852" cy="140.26" rx="11" ry="11" fill="#ADD1B2" style="stroke:#181818;stroke-width:1;"/><path d="M296.821,145.901 Q296.243,146.198 295.602,146.338 Q294.962,146.494 294.258,146.494 Q291.758,146.494 290.43,144.854 Q289.118,143.198 289.118,140.073 Q289.118,136.948 290.43,135.291 Q291.758,133.635 294.258,133.635 Q294.962,133.635 295.602,133.791 Q296.258,133.948 296.821,134.244 L296.821,136.963 Q296.196,136.385 295.602,136.119 Q295.008,135.838 294.383,135.838 Q293.04,135.838 292.352,136.916 Q291.665,137.979 291.665,140.073 Q291.665,142.166 292.352,143.244 Q293.04,144.307 294.383,144.307 Q295.008,144.307 295.602,144.041 Q296.196,143.76 296.821,143.182 L296.821,145.901 Z " fill="#000"/><text x="308.026" y="145.107" fill="#000" font-size="14" textLength="182.984">TransactionOwnerHandler</text><line x1="279.07" y1="156.26" x2="493.793" y2="156.26" style="stroke:#444;stroke-width:0.5;"/><line x1="279.07" y1="164.26" x2="493.793" y2="164.26" style="stroke:#444;stroke-width:0.5;"/><text x="284.07" y="181.255" fill="#000" font-size="14" textLength="204.723">#HandleRequirementAsync()</text></g><!--class Transaction--><g class="entity" data-qualified-name="Transaction" id="ent0005" data-source-line="26"><rect x="304.05" y="265.56" width="150.763" height="88.859" fill="#FFF" style="stroke:#444;stroke-width:0.5;" rx="4" ry="4"/><ellipse cx="330.07" cy="285.693" rx="11" ry="11" fill="#ADD1B2" style="stroke:#181818;stroke-width:1;"/><path d="M333.039,291.333 Q332.461,291.63 331.82,291.771 Q331.18,291.927 330.476,291.927 Q327.976,291.927 326.648,290.287 Q325.336,288.63 325.336,285.505 Q325.336,282.38 326.648,280.724 Q327.976,279.068 330.476,279.068 Q331.18,279.068 331.82,279.224 Q332.476,279.38 333.039,279.677 L333.039,282.396 Q332.414,281.818 331.82,281.552 Q331.226,281.271 330.601,281.271 Q329.258,281.271 328.57,282.349 Q327.883,283.412 327.883,285.505 Q327.883,287.599 328.57,288.677 Q329.258,289.74 330.601,289.74 Q331.226,289.74 331.82,289.474 Q332.414,289.193 333.039,288.615 L333.039,291.333 Z " fill="#000"/><text x="344.519" y="281.699" fill="#000" font-size="12" textLength="98.273" font-style="italic">«domain entity»</text><text x="352.582" y="297.524" fill="#000" font-size="14" textLength="82.147">Transaction</text><line x1="305.05" y1="305.826" x2="453.813" y2="305.826" style="stroke:#444;stroke-width:0.5;"/><text x="310.05" y="322.821" fill="#000" font-size="14" textLength="138.763">+TransactionId : int</text><text x="310.05" y="339.118" fill="#000" font-size="14" textLength="110.462">+UserId : string</text><line x1="305.05" y1="346.419" x2="453.813" y2="346.419" style="stroke:#444;stroke-width:0.5;"/></g><g class="entity" data-qualified-name="GMN10" id="ent0011" data-source-line="38"><path d="M504.92,271.16 L504.92,348.824 A4,4 0 0 0 508.92,352.824 L921.949,352.824 A4,4 0 0 0 925.949,348.824 L925.949,277.16 L915.949,267.16 L508.92,267.16 A4,4 0 0 0 504.92,271.16" style="stroke:#999;stroke-width:0.5;" fill="#FFFACD"/><path d="M915.949,267.16 L915.949,275.16 A2,2 0 0 0 917.949,277.16 L925.949,277.16 L915.949,267.16" style="stroke:#999;stroke-width:1;" fill="#FFFACD"/><text x="510.92" y="284.227" fill="#000" font-size="13" textLength="400.029">Used for single-resource ops (e.g. DELETE /transactions/{id})</text><text x="510.92" y="299.36" fill="#000" font-size="13" textLength="259.771">where a 403 vs 404 distinction matters.</text><text x="510.92" y="314.493" fill="#000" font-size="13" textLength="350.791">IgnoreQueryFilters() is used upstream in the endpoint</text><text x="510.92" y="329.625" fill="#000" font-size="13" textLength="379.799">so this handler can see the resource in order to judge it —</text><text x="510.92" y="344.758" fill="#000" font-size="13" textLength="360.871">otherwise the global query filter would hide it as a 404.</text></g><!--reverse link IAuthorizationRequirement to ResourceOwnerRequirement--><g class="link" data-entity-1="ent0001" data-entity-2="ent0003" id="lnk6" data-source-line="31" data-link-type="extension"><path d="M121.326,202.794 C123.796,231.634 126.11,258.56 128.44,285.72" style="stroke:#444;stroke-width:1;stroke-dasharray:7,7;" fill="none" id="IAuthorizationRequirement-backto-ResourceOwnerRequirement" codeLine="31"/><polygon points="119.79,184.86,115.348,203.306,127.304,202.282,119.79,184.86" fill="none" style="stroke:#444;stroke-width:1;stroke-linejoin:miter;stroke-miterlimit:10;"/></g><!--reverse link IAuthorizationHandler to TransactionOwnerHandler--><g class="link" data-entity-1="ent0002" data-entity-2="ent0004" id="lnk7" data-source-line="32" data-link-type="extension"><path d="M386.44,81.5 C386.44,99.52 386.44,105.16 386.44,123.96" style="stroke:#444;stroke-width:1;stroke-dasharray:7,7;" fill="none" id="IAuthorizationHandler-backto-TransactionOwnerHandler" codeLine="32"/><polygon points="386.44,63.5,380.44,81.5,392.44,81.5,386.44,63.5" fill="none" style="stroke:#444;stroke-width:1;stroke-linejoin:miter;stroke-miterlimit:10;"/></g><!--link TransactionOwnerHandler to ResourceOwnerRequirement--><g class="link" data-entity-1="ent0004" data-entity-2="ent0003" id="lnk8" data-source-line="34" data-link-type="dependency"><path d="M333.08,189 C284.43,217.81 217.973,257.163 174.223,283.063" style="stroke:#444;stroke-width:1;stroke-dasharray:7,7;" fill="none" id="TransactionOwnerHandler-to-ResourceOwnerRequirement" codeLine="34"/><polygon points="169.92,285.61,179.702,284.467,174.223,283.063,175.627,277.583,169.92,285.61" fill="#444" style="stroke:#444;stroke-width:1;stroke-linejoin:miter;stroke-miterlimit:10;"/><text x="282.44" y="231.627" fill="#000" font-size="13" textLength="63.343">evaluates</text></g><!--link TransactionOwnerHandler to Transaction--><g class="link" data-entity-1="ent0004" data-entity-2="ent0005" id="lnk9" data-source-line="35" data-link-type="dependency"><path d="M384.98,188.82 C383.96,210.93 382.811,235.835 381.681,260.275" style="stroke:#444;stroke-width:1;stroke-dasharray:7,7;" fill="none" id="TransactionOwnerHandler-to-Transaction" codeLine="35"/><polygon points="381.45,265.27,385.861,256.464,381.681,260.275,377.87,256.095,381.45,265.27" fill="#444" style="stroke:#444;stroke-width:1;stroke-linejoin:miter;stroke-miterlimit:10;"/><text x="385.44" y="231.627" fill="#000" font-size="13" textLength="132.672">checks ownership of</text></g><!--link TransactionOwnerHandler to GMN10--><g class="link" data-entity-1="ent0004" data-entity-2="ent0011" id="lnk12" data-source-line="38" data-link-type="association"><path d="M462.99,189.03 C484.88,198.31 508.69,208.64 530.44,218.56 C563.77,233.77 600.07,251.3 631.62,266.85" style="stroke:#444;stroke-width:1;stroke-dasharray:7,7;" fill="none" id="TransactionOwnerHandler-GMN10"/></g><?plantuml-src VLFHRjD047ptLwpKbqG8Dn81GLH52cqY8Y4XIX7F5z_QFkBSkhTtjT9GgH_15_8bhC-XE0BtNYpFpSxDpktnrjXQERM3h5BC2--TsGIFwupi5tEFC4duYSAbqjGOMq2kAiRUZgDWTKREeeEtFJoAmY41MUzLjYqYyP8gSl2jD1wx7N8QNOUUJUEA-C8vQaxXXvwu9OsCDRpkUtJARblmpUI4wN70nTbgjLfSNlthurrSSc1Yh4UNgmnXlGY-96VkbJTah_4s68Sxj1ukBd8v21jos_byiEA3ihgIY4xPIPVIDJ85b-6dHbBiQnzQ4ntdHjfZbRLQaVP7iEljhFljrIvuRxFH-By2uaBJJXaBGZH-FvyVPLxqI6iDCv1skeslZ2uYB6DYYrRscKX-fEbWKyb0C6tDG9D9CjHzciw7qvi1tgagA8_yh40_cHba9MPR1cfPN9eQA4-IE4ORyfvsyZ_e4q1oqf3B5B6aLE5BTpG7L3ECC2rIk5f-NDuiuTp_5U7pWz4FOwblIdG82gQJLt37yfc2DkoDxUpjb9VvubIOwyAImyy1tNvbgXOTZS4mXDP1gEMUKEPVxjYNAFUiQ-ekaqaGuPN7139bWH4ZxScjbCKN0PxWUz2581v-FVwKUXAYQmnt5KL56rN1RMi3ykW36WgLXjBeMAKujZDD4p4Ht-Dl?></g></svg>