<svg xmlns="http://www.w3.org/2000/svg" xmlns:xlink="http://www.w3.org/1999/xlink" version="1.1" data-diagram-type="CLASS" style="width:642px;height:760px;background:#FFFFFF;" width="642px" height="760px" viewBox="0 0 642 760" zoomAndPan="magnify" preserveAspectRatio="none" contentStyleType="text/css"><?plantuml 1.2026.7beta11?><defs/><g font-family="sans-serif" lengthAdjust="spacing"><!--class IdentityUser--><g class="entity" data-qualified-name="IdentityUser" id="ent0001" data-source-line="12"><rect x="239.52" y="7" width="179.077" height="121.453" fill="#FFF" style="stroke:#444;stroke-width:0.5;" rx="4" ry="4"/><ellipse cx="282.2" cy="27.133" rx="11" ry="11" fill="#ADD1B2" style="stroke:#181818;stroke-width:1;"/><path d="M285.169,32.773 Q284.591,33.07 283.95,33.211 Q283.31,33.367 282.607,33.367 Q280.107,33.367 278.778,31.727 Q277.466,30.07 277.466,26.945 Q277.466,23.82 278.778,22.164 Q280.107,20.508 282.607,20.508 Q283.31,20.508 283.95,20.664 Q284.607,20.82 285.169,21.117 L285.169,23.836 Q284.544,23.258 283.95,22.992 Q283.357,22.711 282.732,22.711 Q281.388,22.711 280.7,23.789 Q280.013,24.852 280.013,26.945 Q280.013,29.039 280.7,30.117 Q281.388,31.18 282.732,31.18 Q283.357,31.18 283.95,30.914 Q284.544,30.633 285.169,30.055 L285.169,32.773 Z " fill="#000"/><text x="305.481" y="23.139" fill="#000" font-size="12" textLength="79.307" font-style="italic">«framework»</text><text x="302.351" y="38.964" fill="#000" font-size="14" textLength="85.565">IdentityUser</text><line x1="240.52" y1="47.266" x2="417.597" y2="47.266" style="stroke:#444;stroke-width:0.5;"/><text x="245.52" y="64.261" fill="#000" font-size="14" textLength="78.552">+Id : string</text><text x="245.52" y="80.558" fill="#000" font-size="14" textLength="104.378">+Email : string</text><text x="245.52" y="96.854" fill="#000" font-size="14" textLength="138.749">+UserName : string</text><text x="245.52" y="113.151" fill="#000" font-size="14" textLength="167.077">+PasswordHash : string</text><line x1="240.52" y1="120.453" x2="417.597" y2="120.453" style="stroke:#444;stroke-width:0.5;"/></g><!--class User--><g class="entity" data-qualified-name="User" id="ent0002" data-source-line="19"><rect x="297.1" y="199.45" width="63.91" height="48" fill="#FFF" style="stroke:#444;stroke-width:0.5;" rx="4" ry="4"/><ellipse cx="312.1" cy="215.45" rx="11" ry="11" fill="#ADD1B2" style="stroke:#181818;stroke-width:1;"/><path d="M315.069,221.091 Q314.491,221.388 313.85,221.528 Q313.209,221.684 312.506,221.684 Q310.006,221.684 308.678,220.044 Q307.366,218.388 307.366,215.263 Q307.366,212.138 308.678,210.481 Q310.006,208.825 312.506,208.825 Q313.209,208.825 313.85,208.981 Q314.506,209.138 315.069,209.434 L315.069,212.153 Q314.444,211.575 313.85,211.309 Q313.256,211.028 312.631,211.028 Q311.288,211.028 310.6,212.106 Q309.913,213.169 309.913,215.263 Q309.913,217.356 310.6,218.434 Q311.288,219.497 312.631,219.497 Q313.256,219.497 313.85,219.231 Q314.444,218.95 315.069,218.372 L315.069,221.091 Z " fill="#000"/><text x="326.1" y="220.297" fill="#000" font-size="14" textLength="31.91">User</text><line x1="298.1" y1="231.45" x2="360.01" y2="231.45" style="stroke:#444;stroke-width:0.5;"/><line x1="298.1" y1="239.45" x2="360.01" y2="239.45" style="stroke:#444;stroke-width:0.5;"/></g><!--class Account--><g class="entity" data-qualified-name="Account" id="ent0003" data-source-line="22"><rect x="7" y="334.45" width="202.107" height="162.078" fill="#FFF" style="stroke:#444;stroke-width:0.5;" rx="4" ry="4"/><ellipse cx="75.417" cy="350.45" rx="11" ry="11" fill="#ADD1B2" style="stroke:#181818;stroke-width:1;"/><path d="M78.386,356.091 Q77.808,356.388 77.167,356.528 Q76.527,356.684 75.824,356.684 Q73.324,356.684 71.996,355.044 Q70.683,353.388 70.683,350.263 Q70.683,347.138 71.996,345.481 Q73.324,343.825 75.824,343.825 Q76.527,343.825 77.167,343.981 Q77.824,344.138 78.386,344.434 L78.386,347.153 Q77.761,346.575 77.167,346.309 Q76.574,346.028 75.949,346.028 Q74.605,346.028 73.917,347.106 Q73.23,348.169 73.23,350.263 Q73.23,352.356 73.917,353.434 Q74.605,354.497 75.949,354.497 Q76.574,354.497 77.167,354.231 Q77.761,353.95 78.386,353.372 L78.386,356.091 Z " fill="#000"/><text x="95.917" y="355.297" fill="#000" font-size="14" textLength="56.772">Account</text><line x1="8" y1="366.45" x2="208.107" y2="366.45" style="stroke:#444;stroke-width:0.5;"/><text x="13" y="383.445" fill="#000" font-size="14" textLength="113.388">+AccountId : int</text><text x="13" y="399.742" fill="#000" font-size="14" textLength="110.462">+UserId : string</text><text x="13" y="416.039" fill="#000" font-size="14" textLength="136.377">+Balance : decimal</text><text x="13" y="432.336" fill="#000" font-size="14" textLength="142.003">+BankName : string</text><text x="13" y="448.633" fill="#000" font-size="14" textLength="156.646">+AccountType : string</text><text x="13" y="464.929" fill="#000" font-size="14" textLength="169.012">+PlaidAccountId : string</text><text x="13" y="481.226" fill="#000" font-size="14" textLength="190.107">+PlaidAccessToken : string</text><line x1="8" y1="488.528" x2="208.107" y2="488.528" style="stroke:#444;stroke-width:0.5;"/></g><!--class Transaction--><g class="entity" data-qualified-name="Transaction" id="ent0004" data-source-line="32"><rect x="115.86" y="583.53" width="206.387" height="162.078" fill="#FFF" style="stroke:#444;stroke-width:0.5;" rx="4" ry="4"/><ellipse cx="173.73" cy="599.53" rx="11" ry="11" fill="#ADD1B2" style="stroke:#181818;stroke-width:1;"/><path d="M176.698,605.171 Q176.12,605.468 175.48,605.608 Q174.839,605.764 174.136,605.764 Q171.636,605.764 170.308,604.124 Q168.995,602.468 168.995,599.343 Q168.995,596.218 170.308,594.561 Q171.636,592.905 174.136,592.905 Q174.839,592.905 175.48,593.061 Q176.136,593.218 176.698,593.514 L176.698,596.233 Q176.073,595.655 175.48,595.389 Q174.886,595.108 174.261,595.108 Q172.917,595.108 172.23,596.186 Q171.542,597.249 171.542,599.343 Q171.542,601.436 172.23,602.514 Q172.917,603.577 174.261,603.577 Q174.886,603.577 175.48,603.311 Q176.073,603.03 176.698,602.452 L176.698,605.171 Z " fill="#000"/><text x="194.23" y="604.377" fill="#000" font-size="14" textLength="82.147">Transaction</text><line x1="116.86" y1="615.53" x2="321.247" y2="615.53" style="stroke:#444;stroke-width:0.5;"/><text x="121.86" y="632.525" fill="#000" font-size="14" textLength="138.763">+TransactionId : int</text><text x="121.86" y="648.822" fill="#000" font-size="14" textLength="113.388">+AccountId : int</text><text x="121.86" y="665.119" fill="#000" font-size="14" textLength="110.462">+UserId : string</text><text x="121.86" y="681.416" fill="#000" font-size="14" textLength="135.557">+Amount : decimal</text><text x="121.86" y="697.713" fill="#000" font-size="14" textLength="145.271">+Description : string</text><text x="121.86" y="714.009" fill="#000" font-size="14" textLength="126.964">+Date : DateTime</text><text x="121.86" y="730.306" fill="#000" font-size="14" textLength="194.387">+PlaidTransactionId : string</text><line x1="116.86" y1="737.608" x2="321.247" y2="737.608" style="stroke:#444;stroke-width:0.5;"/></g><!--class RefreshToken--><g class="entity" data-qualified-name="RefreshToken" id="ent0005" data-source-line="42"><rect x="424.54" y="334.45" width="203.03" height="162.078" fill="#FFF" style="stroke:#444;stroke-width:0.5;" rx="4" ry="4"/><ellipse cx="473.547" cy="350.45" rx="11" ry="11" fill="#ADD1B2" style="stroke:#181818;stroke-width:1;"/><path d="M476.516,356.091 Q475.937,356.388 475.297,356.528 Q474.656,356.684 473.953,356.684 Q471.453,356.684 470.125,355.044 Q468.812,353.388 468.812,350.263 Q468.812,347.138 470.125,345.481 Q471.453,343.825 473.953,343.825 Q474.656,343.825 475.297,343.981 Q475.953,344.138 476.516,344.434 L476.516,347.153 Q475.891,346.575 475.297,346.309 Q474.703,346.028 474.078,346.028 Q472.734,346.028 472.047,347.106 Q471.359,348.169 471.359,350.263 Q471.359,352.356 472.047,353.434 Q472.734,354.497 474.078,354.497 Q474.703,354.497 475.297,354.231 Q475.891,353.95 476.516,353.372 L476.516,356.091 Z " fill="#000"/><text x="494.047" y="355.297" fill="#000" font-size="14" textLength="96.517">RefreshToken</text><line x1="425.54" y1="366.45" x2="626.57" y2="366.45" style="stroke:#444;stroke-width:0.5;"/><text x="430.54" y="383.445" fill="#000" font-size="14" textLength="56.615">+Id : int</text><text x="430.54" y="399.742" fill="#000" font-size="14" textLength="110.462">+UserId : string</text><text x="430.54" y="416.039" fill="#000" font-size="14" textLength="108.247">+Token : string</text><text x="430.54" y="432.336" fill="#000" font-size="14" textLength="164.281">+CreatedAt : DateTime</text><text x="430.54" y="448.633" fill="#000" font-size="14" textLength="160.139">+ExpiresAt : DateTime</text><text x="430.54" y="464.929" fill="#000" font-size="14" textLength="127.477">+IsRevoked : bool</text><text x="430.54" y="481.226" fill="#000" font-size="14" textLength="191.03">+ReplacedByToken : string</text><line x1="425.54" y1="488.528" x2="626.57" y2="488.528" style="stroke:#444;stroke-width:0.5;"/></g><!--reverse link IdentityUser to User--><g class="link" data-entity-1="ent0001" data-entity-2="ent0002" id="lnk6" data-source-line="52" data-link-type="extension"><path d="M329.05,146.6 C329.05,171.22 329.05,180.28 329.05,199" style="stroke:#444;stroke-width:1;" fill="none" id="IdentityUser-backto-User" codeLine="52"/><polygon points="329.05,128.6,323.05,146.6,335.05,146.6,329.05,128.6" fill="none" style="stroke:#444;stroke-width:1;stroke-linejoin:miter;stroke-miterlimit:10;"/></g><!--link User to Account--><g class="link" data-entity-1="ent0002" data-entity-2="ent0003" id="lnk7" data-source-line="54" data-link-type="association"><path d="M296.77,246.08 C281.63,256.6 263.54,269.7 248.05,282.45 C228.58,298.49 208.42,316.55 189.66,334.04" style="stroke:#444;stroke-width:1;" fill="none" id="User-Account" codeLine="54"/><text x="249.05" y="295.517" fill="#000" font-size="13" textLength="33.598">owns</text><text x="280.862" y="246.471" fill="#000" font-size="13">1</text><text x="172.686" y="323.469" fill="#000" font-size="13" textLength="23.036">0..*</text></g><!--link User to Transaction--><g class="link" data-entity-1="ent0002" data-entity-2="ent0004" id="lnk8" data-source-line="55" data-link-type="association"><path d="M323.22,247.75 C307.69,309.72 264.83,480.85 239.18,583.23" style="stroke:#444;stroke-width:1;" fill="none" id="User-Transaction" codeLine="55"/><text x="302.05" y="420.057" fill="#000" font-size="13" textLength="33.598">owns</text><text x="312.856" y="267.584" fill="#000" font-size="13">1</text><text x="216.95" y="572.391" fill="#000" font-size="13" textLength="23.036">0..*</text></g><!--link User to RefreshToken--><g class="link" data-entity-1="ent0002" data-entity-2="ent0005" id="lnk9" data-source-line="56" data-link-type="association"><path d="M353.21,247.76 C375.61,269.36 410.27,302.8 442.69,334.07" style="stroke:#444;stroke-width:1;" fill="none" id="User-RefreshToken" codeLine="56"/><text x="406.05" y="295.517" fill="#000" font-size="13" textLength="33.598">owns</text><text x="350.156" y="267.597" fill="#000" font-size="13">1</text><text x="411.539" y="323.501" fill="#000" font-size="13" textLength="23.036">0..*</text></g><!--link Account to Transaction--><g class="link" data-entity-1="ent0003" data-entity-2="ent0004" id="lnk10" data-source-line="57" data-link-type="association"><path d="M144.09,496.71 C156.56,524.47 170.53,555.57 183.01,583.33" style="stroke:#444;stroke-width:1;" fill="none" id="Account-Transaction" codeLine="57"/><text x="168.05" y="544.597" fill="#000" font-size="13" textLength="22.979">has</text><text x="138.955" y="516.685" fill="#000" font-size="13">1</text><text x="155.777" y="572.499" fill="#000" font-size="13" textLength="23.036">0..*</text></g><?plantuml-src ZLBVIyCm47xlNn7ccpAP82eo1fqAxaLaJdo-9RSrj4rABZgdxdytJLkNTbNCIyXtb-_79PHALO21dF4CY69hZLo-MfnnhPxa1x9HH3yjb83G6wdMR0KPOL0n-bK9her2mwu2t9EopuYvDGMUhdtZZSwqOI-9j5XLj15eAlJet2-FnyReJHlU1UHA2oGis4NeqO1AI_1o54ML-aoWij9kdycP6uzNhWitsgIJIMtiP2RODIENNAqhu2u7cNMmylg3kzg17vs4OnFtGCc-j6l4lUZd_XnpxYPW6-Nww0r8PVTA1vQca87YfRf0BdF86bYbFQvgtiMsEF2RWHIXR5yHYHOwHTKJQE46JC2jrAe94K3j8FzF5-T-AfrmjqZSoC9hjVjlmPR1ocqXSmpSTyrq_SznPP2IAbxu_dyRx8p3OpS6dRw8xO6Jk_T2EfMUoepc-EQuIlwbrdNGEHOPS1JJxU7Osz_tQpZqVogA_7bmDc0E6OnEJuy7Fv_hckcDehwEyFL-xshDg6vhkF_YIu2-0G00?></g></svg>